<?xml version="1.0" encoding="utf-8"?>
<!-- Generator: Adobe Illustrator 17.0.0, SVG Export Plug-In . SVG Version: 6.00 Build 0)  -->
<!DOCTYPE svg PUBLIC "-//W3C//DTD SVG 1.1//EN" "http://www.w3.org/Graphics/SVG/1.1/DTD/svg11.dtd">
<svg version="1.1" id="Слой_1" xmlns="http://www.w3.org/2000/svg" xmlns:xlink="http://www.w3.org/1999/xlink" x="0px" y="0px"
	 width="191px" height="150px" viewBox="0 0 191 150" enable-background="new 0 0 191 150" xml:space="preserve">
<title>card_decor</title>
<desc>Created with Sketch.</desc>
<g id="Dashboard">
	<g id="Snippet_x2F_task-in-process_x5F_520" transform="translate(-520.000000, -324.000000)">
		<g transform="translate(190.000000, 324.000000)">
			<g id="Snippet_x2F_task">
				
					<linearGradient id="card_decor_1_" gradientUnits="userSpaceOnUse" x1="377.533" y1="572.3189" x2="377.9781" y2="573.1296" gradientTransform="matrix(190.5 0 0 -150 -71499.5 85979.5)">
					<stop  offset="0" style="stop-color:#F7F8FB"/>
					<stop  offset="1" style="stop-color:#EFF0FB"/>
				</linearGradient>
				<path id="card_decor" fill="url(#card_decor_1_)" d="M458.427,0H510.5c1.538,0,2.995,0.347,4.297,0.968L492.674,150h-16.113
					l0.113-0.726l-102.628-95.38c11.582-9.83,25.189-19.735,40.848-29.715C430.333,14.337,444.844,6.278,458.427,0z M431.722,150
					l-80.1-74.34c3.147-3.572,6.57-7.155,10.266-10.749l91.18,85.09H431.722z M389.217,150l-52.01-48.736
					c2.111-4.031,4.572-8.076,7.383-12.133L409.524,150H389.217z M514.825,149.019l5.675-38.12V140l0,0
					C520.5,143.974,518.182,147.406,514.825,149.019z M364.498,150h-33.654c-1.582-9.771-0.942-19.625,1.921-29.561L364.498,150z"/>
			</g>
		</g>
	</g>
</g>
</svg>
