<?xml version="1.0" encoding="UTF-8"?>
<svg width="41px" height="47px" viewBox="0 0 41 47" version="1.1" xmlns="http://www.w3.org/2000/svg" xmlns:xlink="http://www.w3.org/1999/xlink">
    <!-- Generator: Sketch 47.1 (45422) - http://www.bohemiancoding.com/sketch -->
    <title>appstore_icon</title>
    <desc>Created with Sketch.</desc>
    <defs></defs>
    <g id="Download-App" stroke="none" stroke-width="1" fill="none" fill-rule="evenodd">
        <g id="Dashboard-V.2" transform="translate(-970.000000, -444.000000)" fill-rule="nonzero" fill="#9CA2BC">
            <g id="Group-Apple" transform="translate(730.000000, 364.000000)">
                <path d="M270.531915,80 C267.851285,80.1560532 264.798093,81.6798733 262.971631,83.5984158 C261.31782,85.3425471 259.963874,87.9128442 260.5,90.4280622 C263.416888,90.5014993 266.379212,89.0052186 268.132979,87.0499576 C269.768617,85.2232102 270.977171,82.634555 270.531915,80 Z M270.677305,90.4280622 C266.470079,90.4280622 264.725398,93.0717963 261.808511,93.0717963 C258.809842,93.0717963 256.056517,90.5749363 252.430851,90.5749363 C247.496675,90.5749363 240,95.25655 240,106.143593 C240,116.048416 248.868794,126.999717 253.884752,126.999717 C256.928857,127.027257 257.67398,125.035277 261.808511,125.016916 C265.943041,124.989377 266.824468,127.027257 269.87766,126.999717 C273.312501,126.972178 275.984043,123.190169 277.946809,120.170071 C279.355275,118.003677 279.909574,116.883764 281,114.44198 C272.921765,112.376563 271.313388,99.1670721 281,96.449901 C279.173538,93.3012865 273.848625,90.4280622 270.677305,90.4280622 Z" id="appstore_icon"></path>
            </g>
        </g>
    </g>
</svg>