<?xml version="1.0" encoding="UTF-8"?>
<svg width="142px" height="48px" viewBox="0 0 142 48" version="1.1" xmlns="http://www.w3.org/2000/svg" xmlns:xlink="http://www.w3.org/1999/xlink">
    <!-- Generator: Sketch 47.1 (45422) - http://www.bohemiancoding.com/sketch -->
    <title>appstore_button</title>
    <desc>Created with Sketch.</desc>
    <defs></defs>
    <g id="Download-App" stroke="none" stroke-width="1" fill="none" fill-rule="evenodd">
        <g id="Dashboard-V.2" transform="translate(-919.000000, -557.000000)">
            <g id="Group-Apple" transform="translate(730.000000, 364.000000)">
                <g id="appstore_button" transform="translate(190.000000, 194.000000)">
                    <rect id="Rectangle-3" stroke="#9CA2BC" x="-0.5" y="-0.5" width="141" height="47" rx="2"></rect>
                    <path d="M13.2924099,8 C12.0263469,8 11,9.1216205 11,10.5106012 L11,36.4893988 C11,37.8759656 12.0252116,39 13.2924099,39 L24.7075901,39 C25.9736531,39 27,37.8783795 27,36.4893988 L27,10.5106012 C27,9.12403444 25.9747884,8 24.7075901,8 L13.2924099,8 L13.2924099,8 Z M12.5,12.0655738 L12.5,34.9344262 L25.5,34.9344262 L25.5,12.0655738 L12.5,12.0655738 L12.5,12.0655738 Z M19,37.9836066 C19.5522847,37.9836066 20,37.5285517 20,36.9672131 C20,36.4058745 19.5522847,35.9508197 19,35.9508197 C18.4477153,35.9508197 18,36.4058745 18,36.9672131 C18,37.5285517 18.4477153,37.9836066 19,37.9836066 L19,37.9836066 Z M17,10.0327869 C17,10.3134562 17.171875,10.5409836 17.398159,10.5409836 L20.601841,10.5409836 C20.8217381,10.5409836 21,10.3052478 21,10.0327869 C21,9.75211759 20.828125,9.52459016 20.601841,9.52459016 L17.398159,9.52459016 C17.1782619,9.52459016 17,9.76032595 17,10.0327869 Z" id="iPhone-Vector" fill="#9CA2BC"></path>
                    <text id="Available-on-the" font-family="SFProDisplay-Medium, SF Pro Display" font-size="12" font-weight="400" letter-spacing="0.239999995" fill="#9CA2BC">
                        <tspan x="34.1025641" y="19.2307692">Available on the</tspan>
                    </text>
                    <text id="App-Store" font-family="SFProDisplay-Medium, SF Pro Display" font-size="20" font-weight="400" letter-spacing="-0.809999883" fill="#9CA2BC">
                        <tspan x="34.1025641" y="37.0769231">App Store</tspan>
                    </text>
                </g>
            </g>
        </g>
    </g>
</svg>