<?xml version="1.0" encoding="UTF-8"?>
<svg width="191px" height="150px" viewBox="0 0 191 150" version="1.1" xmlns="http://www.w3.org/2000/svg" xmlns:xlink="http://www.w3.org/1999/xlink">
    <!-- Generator: Sketch 47.1 (45422) - http://www.bohemiancoding.com/sketch -->
    <title>card_decor</title>
    <desc>Created with Sketch.</desc>
    <defs>
        <linearGradient x1="43.0618879%" y1="85.3253462%" x2="87.5707568%" y2="4.24963157%" id="linearGradient-1">
            <stop stop-color="#F7F8FB" offset="0%"></stop>
            <stop stop-color="#EFF0FB" offset="100%"></stop>
        </linearGradient>
    </defs>
    <g id="Dashboard" stroke="none" stroke-width="1" fill="none" fill-rule="evenodd" opacity="0.0500000007">
        <g transform="translate(-520.000000, -324.000000)" id="Snippet/task-in-process_520" fill="url(#linearGradient-1)">
            <g transform="translate(190.000000, 324.000000)">
                <g id="Snippet/task">
                    <path d="M458.427025,5.68434189e-14 L510.5,5.68434189e-14 C512.038234,6.47582073e-14 513.495349,0.347312648 514.797204,0.967797243 L492.673836,150 L476.561168,150 L476.673958,149.274411 L374.045518,53.894788 C385.627416,44.0649595 399.235019,34.1598701 414.893601,24.1795196 C430.33331,14.337492 444.844285,6.2779555 458.427025,1.24344979e-14 Z M431.721571,150 L351.621951,75.6599187 C354.768833,72.087772 358.191948,68.5046113 361.887684,64.9104369 L453.067425,150 L431.721571,150 Z M389.21683,150 L337.207317,101.264272 C339.317857,97.2335859 341.778942,93.187985 344.590573,89.1311981 L409.52352,150 L389.21683,150 Z M514.825318,149.018749 L520.5,110.89859 L520.5,140 L520.5,140 C520.5,143.973531 518.182451,147.405769 514.825318,149.018749 Z M364.498368,150 L330.84478,150 C329.262556,140.228608 329.902921,130.374963 332.765636,120.439024 L364.498368,150 Z" id="card_decor"></path>
                </g>
            </g>
        </g>
    </g>
</svg>