<?xml version="1.0" encoding="UTF-8"?>
<svg width="64px" height="61px" viewBox="0 0 64 61" version="1.1" xmlns="http://www.w3.org/2000/svg" xmlns:xlink="http://www.w3.org/1999/xlink">
    <!-- Generator: Sketch 47.1 (45422) - http://www.bohemiancoding.com/sketch -->
    <title>icon_login</title>
    <desc>Created with Sketch.</desc>
    <defs></defs>
    <g id="Login" stroke="none" stroke-width="1" fill="none" fill-rule="evenodd">
        <g transform="translate(-695.000000, -368.000000)" id="icon_login" fill-rule="nonzero">
            <g transform="translate(695.000000, 368.000000)">
                <path d="M7,20 L7,25 L13,25 L13,19 C13,12.372583 18.372583,7 25,7 L27,7 C30.1825979,7 33.2348448,8.26428208 35.4852814,10.5147186 C37.7357179,12.7651552 39,15.8174021 39,19 L39,25 L45,25 L45,20 C45,9.50658975 36.4934102,1 26,1 L26,1 C15.5065898,1 7,9.50658975 7,20 Z" id="Shape" fill="#F9E3AE"></path>
                <path d="M7,20 L7,25 L13,25 L13,19 C13,12.372583 18.372583,7 25,7 L27,7 C30.1825979,7 33.2348448,8.26428208 35.4852814,10.5147186 C37.7357179,12.7651552 39,15.8174021 39,19 L39,25 L45,25 L45,20 C45,9.50658975 36.4934102,1 26,1 L26,1 C15.5065898,1 7,9.50658975 7,20 Z" id="Shape" fill="#BDC0CF"></path>
                <rect id="Rectangle-path" fill="#BDC0CF" x="23" y="1" width="6" height="6"></rect>
                <rect id="Rectangle-path" fill="#BDC0CF" x="1" y="25" width="50" height="34" rx="3"></rect>
                <path d="M5,40 L47,40 C49.209139,40 51,41.790861 51,44 L51,56 C51,57.6568542 49.6568542,59 48,59 L4,59 C2.34314575,59 1,57.6568542 1,56 L1,44 C1,41.790861 2.790861,40 5,40 Z" id="Shape" fill="#9FA2B1"></path>
                <path d="M34.11,41.32 C33.5033657,40.5819963 33.5033657,39.5180037 34.11,38.78 C36.3,36.09 41.92,30.05 48.11,30.05 C54.3,30.05 59.94,36.05 62.11,38.78 C62.7166343,39.5180037 62.7166343,40.5819963 62.11,41.32 C59.92,44.01 54.3,50.05 48.11,50.05 C41.92,50.05 36.3,44 34.11,41.32 Z" id="Shape" fill="#9FA2B1"></path>
                <path d="M62.13,39.62 L62.13,39.56 C62.13,39.56 56.93,30.06 48.13,30.06 C39.33,30.06 34.13,39.56 34.13,39.56 L34.13,39.62 C38.7371872,40.5642478 43.4270648,41.0466352 48.13,41.06 C52.8329352,41.0466352 57.5228128,40.5642478 62.13,39.62 L62.13,39.62 Z" id="Shape" fill="#BDC0CF"></path>
                <circle id="Oval" stroke="#646464" fill="#F1F3FF" cx="48.13" cy="40.05" r="5"></circle>
                <path d="M47,54.05 L43,54.05 C42.4477153,54.05 42,54.4977153 42,55.05 C42,55.6022847 42.4477153,56.05 43,56.05 L47,56.05 C47.5522847,56.05 48,55.6022847 48,55.05 C48,54.4977153 47.5522847,54.05 47,54.05 Z" id="Shape" fill="#646464"></path>
                <path d="M39,54.05 L5,54.05 C4.44771525,54.05 4,54.4977153 4,55.05 C4,55.6022847 4.44771525,56.05 5,56.05 L39,56.05 C39.5522847,56.05 40,55.6022847 40,55.05 C40,54.4977153 39.5522847,54.05 39,54.05 Z" id="Shape" fill="#646464" opacity="0.639999986"></path>
                <circle id="Oval" fill="#646464" cx="10" cy="40.05" r="2"></circle>
                <circle id="Oval" fill="#646464" cx="19" cy="40.05" r="2"></circle>
                <circle id="Oval" fill="#646464" cx="28" cy="40.05" r="2"></circle>
                <path d="M63.34,38.84 C61.91,37 57.48,31.72 52,29.78 L52,27.05 C52,25.3931458 50.6568542,24.05 49,24.05 L46,24.05 L46,19.05 C46,8.55658975 37.4934102,0.05 27,0.05 L25,0.05 C14.5065898,0.05 6,8.55658975 6,19.05 L6,24.05 L3,24.05 C1.34314575,24.05 2.02906125e-16,25.3931458 0,27.05 L0,57.05 C2.02906125e-16,58.7068542 1.34314575,60.05 3,60.05 L49,60.05 C50.6568542,60.05 52,58.7068542 52,57.05 L52,50.32 C57.48,48.38 61.91,43.12 63.34,41.26 C63.8833987,40.5448464 63.8833987,39.5551536 63.34,38.84 Z M30,2.34 C38.0938041,3.79108403 43.9887766,10.8271547 44,19.05 L44,24.05 L40,24.05 L40,19.05 C39.9911533,13.033106 35.8544969,7.808509 30,6.42 L30,2.34 Z M38,19.05 L38,24.05 L14,24.05 L14,19.05 C14,12.9748678 18.9248678,8.05 25,8.05 L27,8.05 C33.0751322,8.05 38,12.9748678 38,19.05 L38,19.05 Z M24,2.11 C24.33,2.11 24.66,2.05 25,2.05 L27,2.05 C27.34,2.05 27.67,2.05 28,2.11 L28,6.11 C27.67,6.11 27.34,6.05 27,6.05 L25,6.05 C24.66,6.05 24.33,6.05 24,6.11 L24,2.11 Z M8,19.05 C8.01122341,10.8271547 13.9061959,3.79108403 22,2.34 L22,6.42 C16.1455031,7.808509 12.0088467,13.033106 12,19.05 L12,24.05 L8,24.05 L8,19.05 Z M50,57.05 C50,57.6022847 49.5522847,58.05 49,58.05 L3,58.05 C2.44771525,58.05 2,57.6022847 2,57.05 L2,27.05 C2,26.4977153 2.44771525,26.05 3,26.05 L49,26.05 C49.5522847,26.05 50,26.4977153 50,27.05 L50,29.24 C49.3403561,29.1169888 48.6710069,29.0534006 48,29.05 C41.34,29.05 35.43,35.42 33.2,38.15 C32.2900485,39.2570056 32.2900485,40.8529944 33.2,41.96 C35.43,44.69 41.34,51.05 48,51.05 C48.6710069,51.0465994 49.3403561,50.9830112 50,50.86 L50,57.05 Z M52,48.19 C51.3534411,48.4617056 50.6841825,48.6758684 50,48.83 C49.3427972,48.9726801 48.672503,49.0464125 48,49.05 C42.19,49.05 36.8,43.21 34.75,40.69 C34.4466828,40.3209981 34.4466828,39.7890019 34.75,39.42 C36.8,36.9 42.19,31.05 48,31.05 C48.672503,31.0535875 49.3427972,31.1273199 50,31.27 C50.6841825,31.4241316 51.3534411,31.6382944 52,31.91 C56.64,33.82 60.47,38.4 61.75,40.04 C60.47,41.7 56.64,46.28 52,48.19 Z" id="Shape" fill="#646464"></path>
                <path d="M48,34.05 C44.6862915,34.05 42,36.7362915 42,40.05 C42,43.3637085 44.6862915,46.05 48,46.05 C51.3137085,46.05 54,43.3637085 54,40.05 C54,36.7362915 51.3137085,34.05 48,34.05 Z M48,44.05 C45.790861,44.05 44,42.259139 44,40.05 C44,37.840861 45.790861,36.05 48,36.05 C50.209139,36.05 52,37.840861 52,40.05 C52,42.259139 50.209139,44.05 48,44.05 Z" id="Shape" fill="#646464"></path>
                <circle id="Oval" fill="#646464" opacity="0.600000024" cx="28" cy="40.05" r="2"></circle>
            </g>
        </g>
    </g>
</svg>