<?xml version="1.0" encoding="UTF-8"?>
<svg width="1440px" height="1024px" viewBox="0 0 1440 1024" version="1.1" xmlns="http://www.w3.org/2000/svg" xmlns:xlink="http://www.w3.org/1999/xlink">
    <!-- Generator: Sketch 47.1 (45422) - http://www.bohemiancoding.com/sketch -->
    <title>decor</title>
    <desc>Created with Sketch.</desc>
    <defs>
        <linearGradient x1="50%" y1="1.86543367%" x2="50%" y2="97.0702013%" id="linearGradient-1">
            <stop stop-color="#CDD0E7" offset="0%"></stop>
            <stop stop-color="#AAAECD" offset="100%"></stop>
        </linearGradient>
    </defs>
    <g id="Dashboard" stroke="none" stroke-width="1" fill="none" fill-rule="evenodd" opacity="0.0971467391">
        <g id="decor" fill="url(#linearGradient-1)">
            <path d="M1037.41672,-1300 L1992.50071,-1300 L1616.18783,1235 L1343.88374,1235 L1345.78988,1222.73755 L-388.630748,-389.178084 C-192.896663,-555.302184 37.071818,-722.698196 301.701861,-891.366119 C562.632935,-1057.69639 807.868421,-1193.90255 1037.41672,-1300 Z M586.094543,1235 L-767.589024,-21.3473732 C-714.406716,-81.716654 -656.55608,-142.272068 -594.098142,-203.013616 L946.839484,1235 L586.094543,1235 Z M-132.235569,1235 L-1011.19634,411.366199 C-975.528223,343.247601 -933.935881,274.876947 -886.419317,206.317249 L210.947494,1235 L-132.235569,1235 Z M1988.07926,1235 L2086.45,574.186166 L2086.45,1225 C2086.45,1230.52285 2081.97285,1235 2076.45,1235 L1988.07926,1235 Z M-549.977587,1235 L-1118.72321,1235 C-1145.46281,1069.86347 -1134.64064,903.336871 -1086.26075,735.419512 L-549.977587,1235 Z"></path>
        </g>
    </g>
</svg>