<?xml version="1.0" encoding="UTF-8"?>
<svg width="48px" height="50px" viewBox="0 0 48 50" version="1.1" xmlns="http://www.w3.org/2000/svg" xmlns:xlink="http://www.w3.org/1999/xlink">
    <!-- Generator: Sketch 47.1 (45422) - http://www.bohemiancoding.com/sketch -->
    <title>logo</title>
    <desc>Created with Sketch.</desc>
    <defs>
        <linearGradient x1="7.75506411%" y1="64.3400643%" x2="100%" y2="37.3510028%" id="linearGradient-1">
            <stop stop-color="#42E97C" offset="0%"></stop>
            <stop stop-color="#32F8D4" offset="100%"></stop>
        </linearGradient>
    </defs>
    <g id="Dashboard" stroke="none" stroke-width="1" fill="none" fill-rule="evenodd">
        <g transform="translate(-696.000000, -22.000000)" id="Snippet/Header_1" fill="url(#linearGradient-1)">
            <g transform="translate(0.000000, -1.000000)">
                <path d="M720.817929,51.0498158 L703.45271,34.9111316 C705.412422,33.2478781 707.714893,31.57189 710.3644,29.8831674 C717.230265,25.5065277 723.010729,23.2130704 727.707317,23 L722.276333,59.5853659 L699.658537,38.5938949 C700.191004,37.9894707 700.770211,37.383183 701.395547,36.7750316 L720.295237,54.4123523 L720.817929,51.0498158 Z M733.804878,23.6744403 L726.710555,70.5609756 L697.219512,42.9262728 C697.576625,42.2442616 697.993053,41.5597267 698.468794,40.8732992 L725.069739,65.8092944 L731.44246,23 C732.271627,23.1441624 733.059304,23.3681346 733.804878,23.6744403 Z M738.682927,27.7386891 L731.511258,72.8646265 C730.69049,72.9711386 729.829227,73.0156744 728.926829,72.9951194 L736.417367,25.4390244 C737.240366,26.0808999 737.995765,26.8470396 738.682927,27.7386891 Z M696.467959,46.1707317 L725.268293,73 C721.602601,72.1915969 717.399449,70.5109529 712.65792,67.9580681 C699.690262,60.9754705 694.294834,53.7132326 696.467959,46.1707317 Z M743.509596,47.0584236 C743.985413,60.8642435 741.156319,69.1035744 735.02439,71.7804878 L740.943329,31.5365854 C742.430999,35.4503223 743.287707,40.6218672 743.509596,47.0584236 Z" id="logo"></path>
            </g>
        </g>
    </g>
</svg>