<?xml version="1.0" encoding="UTF-8"?>
<svg width="142px" height="48px" viewBox="0 0 142 48" version="1.1" xmlns="http://www.w3.org/2000/svg" xmlns:xlink="http://www.w3.org/1999/xlink">
    <!-- Generator: Sketch 47.1 (45422) - http://www.bohemiancoding.com/sketch -->
    <title>google_play_button</title>
    <desc>Created with Sketch.</desc>
    <defs></defs>
    <g id="Download-App" stroke="none" stroke-width="1" fill="none" fill-rule="evenodd">
        <g id="Dashboard-V.2" transform="translate(-379.000000, -557.000000)">
            <g id="Group-Google" transform="translate(190.000000, 364.000000)">
                <g id="google_play_button" transform="translate(190.000000, 194.000000)">
                    <rect id="Rectangle-4" stroke="#9CA2BC" x="-0.5" y="-0.5" width="141" height="47" rx="2"></rect>
                    <path d="M96.9575714,32.410625 L95.92,33.361875 C95.6808571,33.49 95.4423571,33.63875 95.2045,33.744375 C94.4838571,34.0625 93.751,34.1425 93.0997857,34.1425 C92.4067857,34.1425 91.3203571,34.099375 90.2127143,33.32 C88.6730714,32.265 88,30.453125 88,28.87375 C88,25.60375 90.7379286,24 92.9705714,24 C93.7516429,24 94.5532857,24.19 95.2051429,24.590625 C96.289,25.286875 96.5692857,26.1925 96.7248571,26.678125 L91.6244286,28.68125 L89.9542857,28.8075 C90.4949286,31.488125 92.3605,33.0475 94.4221429,33.0475 C95.452,33.0475 96.2163571,32.72125 96.9177143,32.38375 C96.9170714,32.384375 97.0578571,32.313125 96.9575714,32.410625 L96.9575714,32.410625 Z M93.8808571,27.0775 C94.2955,26.93125 94.5102143,26.804375 94.5102143,26.51125 C94.5102143,25.66875 93.5298571,24.69625 92.3598571,24.69625 C91.4926429,24.69625 89.8662143,25.3525 89.8662143,27.630625 C89.8662143,27.98625 89.9092857,28.365 89.9317857,28.74375 L93.8808571,27.0775 L93.8808571,27.0775 Z" id="Shape" fill="#9CA2BC"></path>
                    <path d="M86.9013333,32.30875 C86.9013333,33.12875 87.0573333,33.25625 87.7966667,33.32 C88.182,33.3625 88.566,33.381875 88.9466667,33.42375 L88.1146667,33.888125 L84.15,33.888125 C84.67,33.255625 84.7593333,33.193125 84.7593333,32.77125 L84.7593333,32.300625 L84.7506667,19.76125 L83,19.76125 L84.6846667,19 L87.902,19 C87.2046667,19.378125 86.9966667,19.609375 86.9066667,20.346875 L86.9013333,32.30875 L86.9013333,32.30875 Z" id="Shape" fill="#9CA2BC"></path>
                    <path d="M80.1432353,24.7513846 C80.6440588,25.1433846 81.691,25.9747692 81.691,27.5532308 C81.691,29.0910769 80.7792941,29.816 79.8598235,30.5021538 C79.5777059,30.7723077 79.2483529,31.0652308 79.2483529,31.5181538 C79.2483529,31.9772308 79.5783529,32.2264615 79.8158235,32.4123077 L80.6045882,32.9913846 C81.5635294,33.7612308 82.4377059,34.4670769 82.4377059,35.9009231 C82.4377059,37.8547692 80.4499412,39.824 76.6937647,39.824 C73.5296471,39.824 72,38.3913846 72,36.8547692 C72,36.1064615 72.3908235,35.0473846 73.683,34.3224615 C75.0366471,33.5353846 76.8710588,33.4301538 77.8526471,33.3686154 C77.5459412,32.992 77.1958824,32.5975385 77.1958824,31.9538462 C77.1958824,31.6018462 77.3071765,31.392 77.4145882,31.1446154 C77.1758235,31.1661538 76.9351176,31.1883077 76.7164118,31.1883077 C74.4005882,31.1883077 73.0909412,29.5452308 73.0909412,27.9255385 C73.0909412,26.9704615 73.5490588,25.9113846 74.4898824,25.1427692 C75.7348235,24.168 77.2191765,24 78.3987647,24 L82.8984118,24 L81.4994706,24.7513846 L80.1432353,24.7513846 L80.1432353,24.7513846 Z M78.5954706,33.9704615 C78.4168824,33.9483077 78.3094706,33.9483077 78.0933529,33.9483077 C77.8953529,33.9483077 76.7157647,33.9889231 75.8021176,34.2806154 C75.3187647,34.4486154 73.9217647,34.9452308 73.9217647,36.4209231 C73.9217647,37.8929231 75.4300588,38.9538462 77.764,38.9538462 C79.8598235,38.9538462 80.9734118,37.9981538 80.9734118,36.7113846 C80.9727647,35.6523077 80.2525882,35.0935385 78.5954706,33.9704615 L78.5954706,33.9704615 Z M79.2237647,30.0246154 C79.7284706,29.5458462 79.7724706,28.8836923 79.7724706,28.5070769 C79.7724706,27.0135385 78.8361765,24.6873846 77.0211765,24.6873846 C76.455,24.6873846 75.8415882,24.9581538 75.4934706,25.3753846 C75.1246471,25.808 75.014,26.3692308 75.014,26.9089231 C75.014,28.2996923 75.8661765,30.6061538 77.7426471,30.6061538 C78.2894118,30.6061538 78.8782353,30.3532308 79.2237647,30.0246154 L79.2237647,30.0246154 Z" id="Shape" fill="#9CA2BC"></path>
                    <path d="M67.3278824,34.099375 C63.8570588,34.099375 62,31.488125 62,29.125 C62,26.363125 64.3345882,24 67.6552941,24 C70.8653529,24 72.8757647,26.4275 72.8757647,28.97625 C72.8757647,31.465 70.8886471,34.099375 67.3278824,34.099375 L67.3278824,34.099375 Z M70.0584706,32.393125 C70.5864706,31.718125 70.7145882,30.875625 70.7145882,30.054375 C70.7145882,28.196875 69.7983529,24.654375 67.0904118,24.654375 C66.3702353,24.654375 65.6448824,24.92625 65.1220588,25.370625 C64.2692353,26.10875 64.1171765,27.035625 64.1171765,27.945625 C64.1171765,30.029375 65.1828824,33.46625 67.8293529,33.46625 C68.6841176,33.46625 69.5557059,33.066875 70.0584706,32.393125 L70.0584706,32.393125 Z" id="Shape" fill="#9CA2BC"></path>
                    <path d="M56.3259412,34.099375 C52.8544706,34.099375 51,31.488125 51,29.125 C51,26.363125 53.3352353,24 56.6546471,24 C59.8627647,24 61.8712353,26.4275 61.8712353,28.97625 C61.8718824,31.465 59.8873529,34.099375 56.3259412,34.099375 L56.3259412,34.099375 Z M59.0571765,32.393125 C59.5812941,31.718125 59.712,30.875625 59.712,30.054375 C59.712,28.196875 58.7931765,24.654375 56.0878235,24.654375 C55.3650588,24.654375 54.6474706,24.92625 54.1233529,25.370625 C53.2692353,26.10875 53.1178235,27.035625 53.1178235,27.945625 C53.1178235,30.029375 54.1880588,33.46625 56.83,33.46625 C57.6828235,33.46625 58.5531176,33.066875 59.0571765,32.393125 L59.0571765,32.393125 Z" id="Shape" fill="#9CA2BC"></path>
                    <path d="M49.2154348,34.1534783 L46.265,34.8284783 C45.0695652,35.0169565 43.996087,35.1832609 42.8593478,35.1832609 C37.1678261,35.1832609 35,30.9936957 35,27.7158696 C35,23.7115217 38.0723913,20 43.3334783,20 C44.4467391,20 45.5182609,20.1636957 46.493913,20.4291304 C48.0402174,20.8641304 48.7628261,21.398913 49.2154348,21.7132609 L47.5015217,23.341087 L46.778913,23.5028261 L47.2941304,22.681087 C46.5963043,21.9995652 45.3134783,20.7415217 42.878913,20.7415217 C39.623913,20.7415217 37.1678261,23.2158696 37.1678261,26.8282609 C37.1678261,30.7080435 39.9721739,34.3576087 44.4682609,34.3576087 C45.7895652,34.3576087 46.4697826,34.0921739 47.0873913,33.8443478 L47.0873913,30.5182609 L43.9726087,30.6858696 L45.623913,29.798913 L49.9954348,29.798913 L49.4613043,30.3134783 C49.3165217,30.436087 49.2976087,30.4778261 49.2571739,30.6421739 C49.2356522,30.83 49.216087,31.4273913 49.216087,31.6373913 L49.216087,34.1534783 L49.2154348,34.1534783 Z" id="Shape" fill="#9CA2BC"></path>
                    <path d="M103.097357,32.7003636 L103.097357,38.1705455 L102,38.1705455 L102,24.252 L103.097357,24.252 L103.097357,25.8365455 C103.811571,24.8126364 105.117857,24 106.635643,24 C109.356214,24 111.189643,26.0433636 111.189643,29.278 C111.189643,32.491 109.356214,34.577 106.635643,34.577 C105.203357,34.5776364 103.920214,33.8464545 103.097357,32.7003636 L103.097357,32.7003636 Z M110.010643,29.2786364 C110.010643,26.8407273 108.726857,24.9812727 106.4505,24.9812727 C105.036857,24.9812727 103.684929,26.0815455 103.097357,27.0399091 L103.097357,31.4950909 C103.684929,32.456 105.036857,33.5957273 106.4505,33.5957273 C108.726857,33.5957273 110.010643,31.7203636 110.010643,29.2786364 L110.010643,29.2786364 Z" id="Shape" fill="#9CA2BC"></path>
                    <polygon id="Shape" fill="#9CA2BC" points="112 34.9179091 112 21 112.853 21 112.853 34.9179091 112 34.9179091"></polygon>
                    <path d="M126.115333,37.0180909 C126.358,37.1211818 126.773333,37.1854545 127.037333,37.1854545 C127.733333,37.1854545 128.218,36.9137273 128.653333,35.9534545 L129.483333,34.1589091 L125,24 L126.269333,24 L130.114667,32.8034545 L133.922667,24 L135.21,24 L129.742667,36.2900909 C129.175333,37.5564545 128.282667,38.1654545 127.056667,38.1654545 C126.688667,38.1654545 126.204,38.1024545 125.919333,38.0197273 L126.115333,37.0180909 L126.115333,37.0180909 Z" id="Shape" fill="#9CA2BC"></path>
                    <path d="M122.090462,34.115625 C122.020308,33.7725 121.967385,33.470625 121.928615,33.2175 C121.896,32.965625 121.878154,32.708125 121.878154,32.44625 C121.517538,32.983125 121.007385,33.43 120.355692,33.7825 C119.703385,34.13625 119.084308,34.310625 118.233846,34.310625 C117.210462,34.310625 116.416615,34.055 115.849231,33.53625 C115.284308,33.018125 115,32.31625 115,31.428125 C115,30.54125 115.411692,29.82125 116.232615,29.270625 C117.053538,28.7175 118.115077,28.443125 119.427692,28.443125 L121.877538,28.443125 L121.877538,27.213125 C121.877538,26.505 121.639385,25.94875 121.165538,25.544375 C120.689231,25.140625 120.020923,24.935625 119.153846,24.935625 C118.361846,24.935625 117.719385,25.1225 117.230154,25.48625 C116.745231,25.8575 116.501538,26.3175 116.501538,26.871875 L115.426462,26.871875 L115.404308,26.81875 C115.364923,26.071875 115.702154,25.415625 116.417846,24.85 C117.129846,24.284375 118.064,24 119.212923,24 C120.357538,24 121.284308,24.28 121.983385,24.83875 C122.681231,25.391875 123.031385,26.19125 123.031385,27.23625 L123.031385,32.118125 C123.031385,32.46875 123.047385,32.8075 123.091077,33.1375 C123.135385,33.468125 123.206154,33.798125 123.300308,34.116875 L122.090462,34.116875 L122.090462,34.115625 Z M118.363077,33.338125 C119.255385,33.338125 119.896615,33.135625 120.552615,32.735 C121.203692,32.33625 121.646154,31.816875 121.878769,31.188125 L121.878769,29.288125 L119.417231,29.288125 C118.476923,29.288125 117.698462,29.499375 117.086154,29.92625 C116.472615,30.35125 116.161231,30.865625 116.161231,31.46375 C116.161231,32.0275 116.358154,32.479375 116.750154,32.82125 C117.142154,33.166875 117.678769,33.338125 118.363077,33.338125 L118.363077,33.338125 Z" id="Shape" fill="#9CA2BC"></path>
                    <path d="M35,9.514 C35,7.37518182 36.4982,6 38.3618,6 C39.6104,6 40.4264,6.63127273 40.9358,7.40572727 L40.0232,7.96636364 C39.6776,7.45663636 39.0722,7.05954545 38.3618,7.05954545 C37.0946,7.05954545 36.1526,8.07836364 36.1526,9.514 C36.1526,10.9299091 37.094,11.9684545 38.3618,11.9684545 C39.0152,11.9684545 39.5912,11.6528182 39.8792,11.3575455 L39.8792,10.3081818 L37.9586,10.3081818 L37.9586,9.25945455 L40.9934,9.25945455 L40.9934,11.7953636 C40.3694,12.5392727 39.4664,13.0381818 38.3618,13.0381818 C36.4982,13.0381818 35,11.6432727 35,9.514 L35,9.514 Z" id="Shape" fill="#9CA2BC"></path>
                    <polygon id="Shape" fill="#9CA2BC" points="43 12.7944545 43 6 47.1794286 6 47.1794286 7.04936364 44.0697143 7.04936364 44.0697143 8.80127273 47.116 8.80127273 47.116 9.85063636 44.0697143 9.85063636 44.0697143 11.7457273 47.1794286 11.7457273 47.1794286 12.7944545 43 12.7944545"></polygon>
                    <polygon id="Shape" fill="#9CA2BC" points="51.020625 12.7938182 51.020625 7.04936364 49 7.04936364 49 6 54.211875 6 54.211875 7.04936364 52.191875 7.04936364 52.191875 12.7938182"></polygon>
                    <polygon id="Shape" fill="#9CA2BC" points="58 12.7944545 58 6 58.936 6 58.936 12.7944545"></polygon>
                    <polygon id="Shape" fill="#9CA2BC" points="63.020625 12.7938182 63.020625 7.04936364 61 7.04936364 61 6 66.211875 6 66.211875 7.04936364 64.19125 7.04936364 64.19125 12.7938182"></polygon>
                    <path d="M70,9.514 C70,7.48654545 71.4362727,6 73.4739091,6 C75.5000909,6 76.9471818,7.48718182 76.9471818,9.514 C76.9471818,11.5408182 75.5000909,13.028 73.4739091,13.028 C71.4356364,13.028 70,11.5408182 70,9.514 L70,9.514 Z M75.7247273,9.514 C75.7247273,8.10827273 74.8382727,7.05954545 73.4739091,7.05954545 C72.0987273,7.05954545 71.2224545,8.10827273 71.2224545,9.514 C71.2224545,10.9089091 72.0987273,11.9684545 73.4739091,11.9684545 C74.8382727,11.9684545 75.7247273,10.9089091 75.7247273,9.514 L75.7247273,9.514 Z" id="Shape" fill="#9CA2BC"></path>
                    <polygon id="Shape" fill="#9CA2BC" points="82.9613333 12.7944545 79.248 7.93581818 79.248 12.7944545 78 12.7944545 78 6 79.2806667 6 82.9193333 10.7065455 82.9193333 6 84.168 6 84.168 12.7944545"></polygon>
                    <path d="M9.65311828,39.3718354 C9.25750424,39.2646912 9,38.869772 9,38.2586525 L9,18.0864944 C9,17.5205045 9.21803261,17.1387856 9.56365643,17 L9.56365643,17 L19.4228332,28.2416571 L9.65311828,39.3718354 L9.65311828,39.3718354 Z M11.0103048,38.9436451 L22.8776422,32.1809087 L19.9871835,28.8851421 L11.0103048,38.9436451 L11.0103048,38.9436451 Z M22.9593618,24.2126559 L11.2574085,17.5426155 L20.0042946,27.5792254 L22.9593618,24.2126559 L22.9593618,24.2126559 Z M23.7533298,24.6652127 L28.3375107,27.2781673 C29.2054705,27.7728989 29.213408,28.5704009 28.3375107,29.0695409 L23.6373545,31.7479781 L20.5716571,28.2302452 L23.7533298,24.6652127 L23.7533298,24.6652127 Z" id="google-play" fill="#9CA2BC"></path>
                </g>
            </g>
        </g>
    </g>
</svg>