<?xml version="1.0" encoding="UTF-8"?>
<svg width="38px" height="47px" viewBox="0 0 38 47" version="1.1" xmlns="http://www.w3.org/2000/svg" xmlns:xlink="http://www.w3.org/1999/xlink">
    <!-- Generator: Sketch 47.1 (45422) - http://www.bohemiancoding.com/sketch -->
    <title>google_play_icon</title>
    <desc>Created with Sketch.</desc>
    <defs></defs>
    <g id="Download-App" stroke="none" stroke-width="1" fill="none" fill-rule="evenodd">
        <g id="Dashboard-V.2" transform="translate(-431.000000, -444.000000)" fill-rule="nonzero" fill="#BDC0CF">
            <g id="Group-Google" transform="translate(190.000000, 364.000000)">
                <path d="M243.703063,80.0199818 C243.383443,79.9741128 243.054692,80.0108085 242.753338,80.0933732 L264.377838,101.817226 L269.783964,96.459654 L244.579732,80.3869388 C244.278377,80.194287 244.022682,80.0658509 243.703063,80.0199818 Z M241.073056,81.7813753 C241.018265,81.9740271 241,82.1575056 241,82.3685064 L241,124.641949 C241,124.85295 241.018265,125.036428 241.073056,125.22908 L262.697556,103.505228 L241.073056,81.7813753 Z M271.756469,97.7073077 L266.058121,103.505228 L271.756469,109.303148 L277.673984,105.486795 C279.098571,104.56023 279.098571,102.450226 277.673984,101.52366 L271.756469,97.7073077 Z M264.377838,105.19323 L242.753338,126.917082 C243.356049,127.082214 243.977023,127.008823 244.579732,126.623517 L269.783964,110.550802 L264.377838,105.19323 Z" id="google_play_icon"></path>
            </g>
        </g>
    </g>
</svg>