<?xml version="1.0" encoding="UTF-8"?>
<svg width="441px" height="325px" viewBox="0 0 441 325" version="1.1" xmlns="http://www.w3.org/2000/svg" xmlns:xlink="http://www.w3.org/1999/xlink">
    <!-- Generator: Sketch 47.1 (45422) - http://www.bohemiancoding.com/sketch -->
    <title>logo_decor</title>
    <desc>Created with Sketch.</desc>
    <defs>
        <filter x="-7.7%" y="-6.9%" width="115.4%" height="127.8%" filterUnits="objectBoundingBox" id="filter-1">
            <feOffset dx="0" dy="20" in="SourceAlpha" result="shadowOffsetOuter1"></feOffset>
            <feGaussianBlur stdDeviation="10" in="shadowOffsetOuter1" result="shadowBlurOuter1"></feGaussianBlur>
            <feColorMatrix values="0 0 0 0 0.31372549   0 0 0 0 0.31372549   0 0 0 0 0.31372549  0 0 0 0.148947011 0" type="matrix" in="shadowBlurOuter1" result="shadowMatrixOuter1"></feColorMatrix>
            <feMerge>
                <feMergeNode in="shadowMatrixOuter1"></feMergeNode>
                <feMergeNode in="SourceGraphic"></feMergeNode>
            </feMerge>
        </filter>
        <linearGradient x1="50%" y1="1.86543367%" x2="50%" y2="97.0702013%" id="linearGradient-2">
            <stop stop-color="#CDD0E7" offset="0%"></stop>
            <stop stop-color="#AAAECD" offset="100%"></stop>
        </linearGradient>
    </defs>
    <g id="Download-App" stroke="none" stroke-width="1" fill="none" fill-rule="evenodd" opacity="0.0799999982">
        <g id="Dashboard-V.2" transform="translate(-713.000000, -364.000000)" fill="url(#linearGradient-2)">
            <g id="Group-Apple" transform="translate(730.000000, 364.000000)">
                <g id="Colors/color_4-Copy" filter="url(#filter-1)">
                    <path d="M-28.6284877,196.276241 L-361.248112,-112.849909 C-323.711082,-144.708464 -279.60873,-176.810941 -228.859135,-209.15734 C-97.3478752,-292.989068 13.3731951,-336.918773 103.333333,-341 L-0.693682236,359.769231 L-433.923077,-42.3089396 C-423.724006,-53.886297 -412.629663,-65.4993502 -400.651752,-77.1480993 L-38.6403127,260.683472 L-28.6284877,196.276241 Z M220.128205,-328.081528 L84.240996,570 L-480.641026,40.6749818 C-473.800749,27.6114943 -465.824352,14.4996684 -456.711832,1.35158851 L52.8122224,478.984592 L174.8776,-341 C190.759756,-338.238662 205.847215,-333.948617 220.128205,-328.081528 Z M313.564103,-250.233447 L176.195377,614.124956 C160.474106,616.165127 143.977155,617.018181 126.692308,616.624464 L270.168753,-294.282051 C285.932778,-281.987337 300.401966,-267.312423 313.564103,-250.233447 Z M-495.036551,102.820513 L56.6153846,616.717949 C-13.5985967,601.233505 -94.1072635,569.041847 -184.928224,520.142976 C-433.315392,386.395794 -536.661357,247.292283 -495.036551,102.820513 Z M406.015863,119.823682 C415.129833,384.265313 360.940347,542.084414 243.487179,593.358974 L356.860652,-177.487179 C385.356015,-102.522057 401.765707,-3.46442937 406.015863,119.823682 Z" id="logo_decor"></path>
                </g>
            </g>
        </g>
    </g>
</svg>